<svg width="118" height="97" viewBox="0 0 118 97" fill="none" xmlns="http://www.w3.org/2000/svg">
<path d="M117.334 31.9387C117.334 40.1263 114.221 48.2463 107.996 54.5393L106.981 55.5543C105.492 48.111 98.9963 45.3367 95.5453 44.9983C99.7407 43.9833 104.883 40.0587 104.883 32.4123C104.883 23.2773 97.44 17.3227 85.5307 17.3227C72.3357 17.3227 65.4337 24.6307 65.4337 36.743H76.5987C76.734 29.7057 81.1323 27.5403 85.3277 27.5403C89.523 27.5403 93.3123 29.5703 93.3123 34.4423C93.3123 37.149 92.2297 41.412 83.839 41.412H80.997V50.0057H84.3803C92.2297 50.0057 95.207 53.5243 95.207 58.058C95.207 63.8097 90.1997 66.178 85.26 66.178C79.982 66.178 74.9747 63.6067 74.907 55.8927H63.6067C63.539 68.005 70.1027 76.2603 84.854 76.2603C85.3277 76.2603 85.8013 76.2603 86.275 76.2603L71.3207 91.2147C64.351 98.1843 53.1183 98.1843 46.1487 91.2147L30.856 75.9897C32.2093 76.1927 33.495 76.328 34.8483 76.328C46.1487 76.328 57.9227 68.6817 57.9227 46.7577C57.9227 25.0367 46.2163 17.3227 34.8483 17.3227C23.6833 17.3227 11.774 25.0367 11.774 46.7577C11.774 51.0883 12.2477 54.9453 13.0597 58.1933L9.338 54.4717C-3.11267 42.021 -3.11267 21.7887 9.338 9.338C21.7887 -3.11267 42.021 -3.11267 54.4717 9.338L58.667 13.4657L62.7947 9.338C75.2453 -3.11267 95.4777 -3.11267 107.928 9.338C114.221 15.631 117.334 23.751 117.334 31.9387Z" fill="#ED1C24"/>
<path d="M46.4871 46.7576C46.4871 56.9076 43.6451 66.3133 34.8484 66.3133C26.0517 66.3133 23.2097 56.9753 23.2097 46.7576C23.2097 36.743 26.0517 27.3373 34.8484 27.3373C43.5774 27.3373 46.4871 36.8106 46.4871 46.7576Z" fill="#ED1C24"/>
</svg>
