<svg width="118" height="97" viewBox="0 0 118 97" fill="none" xmlns="http://www.w3.org/2000/svg">
<path d="M117.334 31.9387C117.334 40.1263 114.221 48.2463 107.996 54.5393L96.9663 65.569H77.952V65.2983C77.952 61.5767 81.0647 58.5993 89.2523 53.795C96.1543 49.938 104.951 45.3367 104.951 34.104C104.951 24.157 98.049 17.255 85.057 17.255C70.847 17.255 65.0277 25.6457 65.0277 35.7957V37.4197H76.5987V36.2693C76.5987 29.7733 80.5233 27.405 84.9217 27.405C88.711 27.405 93.1093 28.9613 92.974 34.7807C92.9063 41.209 87.087 43.5773 79.373 47.9757C67.2607 55.1483 64.2833 62.2533 64.2833 72.674V75.3807H87.087L71.3883 91.0793C64.4187 98.049 53.186 98.049 46.2163 91.0793L30.856 75.9897C32.2093 76.1927 33.495 76.328 34.8483 76.328C46.1487 76.328 57.9227 68.6817 57.9227 46.7577C57.9227 25.0367 46.2163 17.3227 34.8483 17.3227C23.6833 17.3227 11.774 25.0367 11.774 46.7577C11.774 51.0883 12.2477 54.9453 13.0597 58.1933L9.338 54.4717C-3.11267 42.021 -3.11267 21.7887 9.338 9.338C21.7887 -3.11267 42.021 -3.11267 54.4717 9.338L58.667 13.4657L62.7947 9.338C75.2453 -3.11267 95.4777 -3.11267 107.928 9.338C114.221 15.631 117.334 23.751 117.334 31.9387Z" fill="#ED1C24"/>
<path d="M46.487 46.7576C46.487 56.9076 43.645 66.3133 34.8483 66.3133C26.0517 66.3133 23.2097 56.9753 23.2097 46.7576C23.2097 36.743 26.0517 27.3373 34.8483 27.3373C43.5773 27.3373 46.487 36.8106 46.487 46.7576Z" fill="#ED1C24"/>
</svg>
