<svg width="118" height="97" viewBox="0 0 118 97" fill="none" xmlns="http://www.w3.org/2000/svg">
<path d="M117.334 31.9387C117.334 40.1263 114.221 48.2463 107.996 54.5393L90.4703 71.9973V18.067H78.4933C76.5987 23.8863 72.4033 26.39 66.0427 27.0667V36.946C70.5763 36.946 75.313 36.0663 78.4933 32.683V75.516H86.9517L71.253 91.2147C64.2833 98.1843 53.0507 98.1843 46.081 91.2147L29.9763 75.11C32.3447 75.922 34.8483 76.2603 37.2843 76.2603C48.5847 76.2603 60.3587 68.614 60.3587 46.69C60.3587 24.969 48.6523 17.255 37.2843 17.255C26.1193 17.255 14.21 24.969 14.21 46.69C14.21 52.78 15.1573 57.7873 16.7137 61.8473L9.338 54.4717C-3.11267 42.021 -3.11267 21.7887 9.338 9.338C21.7887 -3.11267 42.021 -3.11267 54.4717 9.338L58.5993 13.4657L62.727 9.338C75.1777 -3.11267 95.41 -3.11267 107.861 9.338C114.221 15.631 117.334 23.751 117.334 31.9387Z" fill="#ED1C24"/>
<path d="M48.9907 46.7576C48.9907 56.9076 46.1487 66.3133 37.352 66.3133C28.5553 66.3133 25.7133 56.9753 25.7133 46.7576C25.7133 36.743 28.5553 27.3373 37.352 27.3373C46.1487 27.3373 48.9907 36.8106 48.9907 46.7576Z" fill="#ED1C24"/>
</svg>
