<svg width="131" height="53" viewBox="0 0 131 53" fill="none" xmlns="http://www.w3.org/2000/svg">
<path fill-rule="evenodd" clip-rule="evenodd" d="M131 4.6803C131 3.28058 130.553 2.19955 129.677 1.4747C128.857 0.78734 127.82 0.556137 126.957 0.487401C126.658 0.193711 126.168 0 125.621 0C124.714 0 123.975 0.518645 123.975 1.14352C123.975 1.78089 124.708 2.29328 125.621 2.29328C126.186 2.29328 126.689 2.09332 126.988 1.77464C127.615 1.83713 128.335 2.00584 128.863 2.45575C129.441 2.9369 129.727 3.66175 129.727 4.67405C129.727 6.83611 129.279 10.1354 128.025 12.8911C127.839 13.3098 127.64 13.6972 127.429 14.0596C127.155 14.0971 126.894 14.2471 126.72 14.4908C125.435 16.3779 123.77 17.334 121.795 17.334C119.907 17.2652 118.323 16.3092 117.081 14.4908C116.913 14.2471 116.652 14.0971 116.373 14.0659C116.161 13.6972 115.963 13.316 115.776 12.8974C114.522 10.1354 114.075 6.84236 114.075 4.6803C114.075 3.66175 114.354 2.9369 114.932 2.462C115.466 2.00584 116.18 1.83088 116.814 1.77464C117.106 2.08707 117.609 2.29328 118.18 2.29328C119.087 2.29328 119.82 1.78714 119.82 1.14977C119.82 0.512396 119.087 0.00624887 118.18 0.00624887C117.627 0.00624887 117.13 0.193711 116.832 0.49365C115.975 0.556137 114.938 0.793588 114.118 1.4747C113.242 2.2058 112.795 3.28683 112.795 4.69279C112.795 6.99857 113.354 11.4352 115.292 14.7657C115.205 15.0594 115.242 15.3781 115.416 15.6468C116.789 17.6589 118.584 18.8837 120.658 19.2523V27.032C120.689 28.2942 120.385 29.494 118.547 29.394H105.398L103.081 19.6148C103.031 19.3836 102.907 19.1961 102.733 19.0586C102.571 18.9211 102.354 18.8587 102.106 18.8462H102.093C101.863 18.8462 101.64 18.9274 101.466 19.0774C101.304 19.2211 101.174 19.421 101.13 19.6522L99.236 29.3815H96.3665L93.5279 9.38559C93.4907 9.14189 93.3727 8.92318 93.1925 8.76696C93.0124 8.61699 92.7826 8.52326 92.5404 8.52326C92.2981 8.52326 92.0621 8.62324 91.8882 8.76696C91.7143 8.91693 91.5901 9.13564 91.5528 9.37934L87.7826 34.8991L87.3789 30.3063C87.354 30.0439 87.236 29.8189 87.0621 29.6565C86.882 29.494 86.646 29.3878 86.3851 29.3878H85.1801V29.369H84.2547H83.4161H38.3789H37.7702H37.2422C36.9876 29.369 36.7578 29.4565 36.5901 29.6127C36.4099 29.7627 36.2857 29.9814 36.2547 30.2251L34.2547 44.266L30.2484 17.1528C30.2112 16.9091 30.0932 16.6903 29.913 16.5404C29.7391 16.3842 29.5093 16.2967 29.2671 16.2967H29.2422H29.2298C28.9876 16.3029 28.7516 16.4092 28.5838 16.5716C28.4037 16.7341 28.2919 16.959 28.2733 17.2152L27.2112 29.3565H24.9379C24.6894 29.3565 24.472 29.444 24.2919 29.6002C24.1118 29.7502 23.9938 29.9564 23.9503 30.2063L22.8075 37.4736L21.3602 30.6063C21.3168 30.3751 21.1863 30.1814 21.0124 30.0376C20.8385 29.8939 20.6211 29.8127 20.3851 29.8127H10.1491C9.68944 27.4507 7.61491 25.6635 5.12422 25.6635C2.29814 25.6635 0 27.9755 0 30.8187C0 33.6681 2.29814 35.9739 5.12422 35.9739C7.61491 35.9739 9.68944 34.193 10.1491 31.831H19.5714L21.9627 43.185C22.0124 43.4162 22.1491 43.6161 22.3168 43.7536C22.5031 43.8973 22.7267 43.9785 22.9565 43.9785H22.9627C23.1988 43.9723 23.4224 43.8786 23.5963 43.7348C23.7702 43.5849 23.8882 43.3787 23.9255 43.135L25.7888 31.3749H28.1242C28.3851 31.3749 28.6211 31.2749 28.8012 31.1124C28.9814 30.9499 29.0994 30.7187 29.118 30.4625L29.5217 25.8635L33.2919 51.3833C33.3292 51.6207 33.4534 51.8394 33.6335 51.9957C33.8075 52.1456 34.0373 52.2331 34.2795 52.2331C34.5342 52.2331 34.7578 52.1456 34.9317 51.9832C35.1118 51.8332 35.2298 51.6145 35.2671 51.3708L38.1056 31.4248H83.4161H84.2547H85.1801V31.3999H85.4721L86.5342 43.5536C86.559 43.7973 86.6708 44.0223 86.8385 44.191C87.0186 44.3535 87.2422 44.4597 87.4907 44.4659H87.5031H87.5155C87.7702 44.4659 87.9938 44.3785 88.1677 44.2285C88.3478 44.0723 88.4658 43.8598 88.5031 43.6161L92.5093 16.4966L94.5031 30.5375H94.5093C94.5404 30.7812 94.6646 30.9999 94.8385 31.1562C95.0186 31.3061 95.2484 31.4061 95.4907 31.4061H100.056C100.292 31.4061 100.509 31.3186 100.689 31.1749C100.863 31.0312 100.988 30.8312 101.031 30.5938L102.199 24.5825L103.64 30.6375C103.689 30.8625 103.82 31.0499 103.994 31.1936C104.168 31.3311 104.379 31.4123 104.609 31.4123C109.342 31.4123 114.087 31.4123 118.82 31.4123C119.224 31.4123 119.621 31.4123 120.019 31.4123C121.161 31.4123 122.652 30.2063 122.652 29.0003V19.2336C124.745 18.8524 127.012 17.6277 128.373 15.6468C128.553 15.3781 128.59 15.0469 128.497 14.7657C130.447 11.4352 131 6.99233 131 4.6803ZM5.12422 34.4742C3.12422 34.4742 1.49689 32.8433 1.49689 30.825C1.49689 28.8129 3.12422 27.1757 5.12422 27.1757C7.13043 27.1757 8.75155 28.8129 8.75155 30.825C8.75155 32.8433 7.13043 34.4742 5.12422 34.4742Z" fill="white"/>
<path d="M51.7205 38.0298L52.5963 38.2547C52.4099 38.9796 52.0807 39.5294 51.6087 39.9044C51.1304 40.2855 50.5528 40.473 49.8633 40.473C49.1491 40.473 48.5714 40.3293 48.1242 40.0356C47.677 39.7419 47.3354 39.3232 47.1056 38.7671C46.8696 38.211 46.7578 37.6173 46.7578 36.9862C46.7578 36.2926 46.8882 35.6927 47.1491 35.1741C47.4099 34.6617 47.7888 34.268 48.2733 33.9993C48.7578 33.7306 49.2919 33.5994 49.8758 33.5994C50.5341 33.5994 51.0932 33.7681 51.5404 34.1056C51.9938 34.443 52.3043 34.9179 52.4845 35.5365L51.6211 35.7427C51.4658 35.2616 51.2484 34.9054 50.9565 34.6867C50.6646 34.468 50.2981 34.3555 49.8571 34.3555C49.3478 34.3555 48.9255 34.4805 48.5838 34.7242C48.2422 34.9679 48.0062 35.2991 47.8633 35.7115C47.7267 36.1239 47.6584 36.5488 47.6584 36.9862C47.6584 37.5486 47.7391 38.0423 47.9068 38.4672C48.0683 38.8858 48.323 39.2045 48.6708 39.4107C49.0186 39.6169 49.3913 39.7232 49.795 39.7232C50.2857 39.7232 50.7019 39.5794 51.0373 39.2982C51.3664 39.0108 51.5963 38.5921 51.7205 38.0298Z" fill="#FDFEFF"/>
<path d="M53.9193 40.3605V33.7119H54.795V39.5732H58.0497V40.3605H53.9193Z" fill="#FDFEFF"/>
<path d="M59.528 40.3605V33.7119H60.4037V40.3605H59.528Z" fill="#FDFEFF"/>
<path d="M62.2174 40.3605V33.7119H63.1118L66.5839 38.9296V33.7119H67.4224V40.3605H66.528L63.0559 35.1366V40.3605H62.2174Z" fill="#FDFEFF"/>
<path d="M69.3292 40.3605V33.7119H70.205V40.3605H69.3292Z" fill="#FDFEFF"/>
<path d="M76.7453 38.0298L77.6211 38.2547C77.4348 38.9796 77.1056 39.5294 76.6335 39.9044C76.1553 40.2855 75.5776 40.473 74.8882 40.473C74.1739 40.473 73.5963 40.3293 73.1491 40.0356C72.7018 39.7419 72.3602 39.3232 72.1304 38.7671C71.8944 38.211 71.7826 37.6173 71.7826 36.9862C71.7826 36.2926 71.913 35.6927 72.1739 35.1741C72.4348 34.6617 72.8137 34.268 73.2981 33.9993C73.7826 33.7306 74.3168 33.5994 74.9006 33.5994C75.559 33.5994 76.118 33.7681 76.5652 34.1056C77.0186 34.443 77.3292 34.9179 77.5093 35.5365L76.6459 35.7427C76.4907 35.2616 76.2733 34.9054 75.9813 34.6867C75.6894 34.468 75.323 34.3555 74.882 34.3555C74.3727 34.3555 73.9503 34.4805 73.6087 34.7242C73.2671 34.9679 73.031 35.2991 72.8882 35.7115C72.7515 36.1239 72.6832 36.5488 72.6832 36.9862C72.6832 37.5486 72.764 38.0423 72.9317 38.4672C73.0932 38.8858 73.3478 39.2045 73.6956 39.4107C74.0435 39.6169 74.4161 39.7232 74.8199 39.7232C75.3105 39.7232 75.7267 39.5794 76.0621 39.2982C76.3913 39.0108 76.6211 38.5921 76.7453 38.0298Z" fill="#FDFEFF"/>
<path d="M43.2484 27.7258V18.9026H44.4099V22.5269H48.9689V18.9026H50.1304V27.7321H48.9689V23.5704H44.4099V27.7321H43.2484V27.7258Z" fill="white"/>
<path d="M52.472 27.7256V18.9024H58.8137V19.9459H53.6273V22.6516H58.4845V23.6889H53.6273V26.6946H59.0124V27.7381H52.472V27.7256Z" fill="white"/>
<path d="M68.5901 27.7256V18.9024H72.4783C73.2609 18.9024 73.8571 18.9836 74.2609 19.1398C74.6708 19.2961 74.9938 19.5773 75.236 19.9772C75.4783 20.3771 75.6025 20.8208 75.6025 21.3082C75.6025 21.933 75.4037 22.4642 75 22.8891C74.5963 23.3202 73.9751 23.5889 73.1304 23.7077C73.4348 23.8576 73.6708 24.0014 73.8323 24.1451C74.1739 24.4575 74.4907 24.8512 74.795 25.3198L76.323 27.7256H74.8633L73.7019 25.8885C73.3602 25.3573 73.0807 24.9512 72.8634 24.67C72.646 24.3888 72.4472 24.1951 72.2733 24.0826C72.0994 23.9701 71.9255 23.8951 71.7453 23.8451C71.6149 23.8201 71.3975 23.8014 71.0994 23.8014H69.7515V27.7194H68.5901V27.7256ZM69.7515 22.7954H72.2484C72.7764 22.7954 73.1925 22.7391 73.4907 22.6266C73.7888 22.5142 74.0186 22.3392 74.1739 22.0955C74.3292 21.8518 74.4099 21.5893 74.4099 21.3019C74.4099 20.8832 74.2609 20.5396 73.9565 20.2709C73.6522 20.0022 73.1801 19.8647 72.5279 19.8647H69.7515V22.7954Z" fill="white"/>
<path d="M79.8199 27.7256V19.9397H76.9317V18.8962H83.8882V19.9397H80.9876V27.7256H79.8199V27.7256Z" fill="white"/>
<path d="M62.0869 18.6899C62.1242 18.7149 62.1615 18.7399 62.1987 18.7712C62.1615 18.7462 62.1242 18.7149 62.0869 18.6899Z" fill="white"/>
<path d="M62.1988 18.7712C62.236 18.8024 62.2733 18.8337 62.3106 18.8649C62.2733 18.8337 62.236 18.8024 62.1988 18.7712Z" fill="white"/>
<path d="M67.6522 19.9459C67.4907 19.446 67.2422 19.0211 66.9317 18.7149C66.6149 18.4025 66.2485 18.24 65.8758 18.24C65.441 18.24 65 18.465 64.6087 18.8899C64.2298 19.2961 63.8882 19.8897 63.5963 20.6395C63.3044 19.8897 62.9627 19.2961 62.5839 18.8899C62.1863 18.465 61.7516 18.24 61.3168 18.24C60.9441 18.24 60.5776 18.4025 60.2609 18.7149C59.9503 19.0149 59.7019 19.4398 59.5404 19.9459C59.3416 20.5583 59.2857 21.2519 59.3727 21.9455C59.4721 22.7204 59.7453 23.4577 60.1801 24.1388C61.7205 26.5258 63.4783 28.7879 63.4969 28.8066L63.5963 28.9316L63.6957 28.8066C63.7143 28.7816 65.4783 26.5196 67.0124 24.1388C67.4472 23.4577 67.7205 22.7204 67.8199 21.9455C67.9068 21.2457 67.8509 20.5583 67.6522 19.9459ZM64.7702 18.9711C64.8075 18.9336 64.8447 18.9024 64.882 18.8649C64.8447 18.8962 64.8075 18.9336 64.7702 18.9711ZM65.0683 18.7149C65.1056 18.6899 65.1429 18.6649 65.1801 18.64C65.1429 18.6649 65.1056 18.6899 65.0683 18.7149ZM65.2174 18.6212C65.2547 18.6025 65.2919 18.5775 65.3292 18.565C65.2919 18.5837 65.2547 18.6025 65.2174 18.6212ZM65.8571 18.44C65.8634 18.44 65.8696 18.44 65.8758 18.44C65.9006 18.44 65.9317 18.44 65.9565 18.4462C65.9255 18.44 65.8944 18.44 65.8571 18.44ZM66.3354 18.5275C66.2919 18.5087 66.2485 18.4962 66.205 18.4837C66.2422 18.4962 66.2857 18.5087 66.3354 18.5275C66.3851 18.5462 66.4348 18.5712 66.4783 18.5962C66.4286 18.5712 66.3789 18.5462 66.3354 18.5275Z" fill="white"/>
<path d="M62.3105 18.8649C62.2733 18.8337 62.236 18.8024 62.1987 18.7712C62.236 18.8024 62.2733 18.8337 62.3105 18.8649ZM62.1987 18.7712C62.1615 18.7399 62.1242 18.7149 62.0869 18.6899C62.1242 18.7149 62.1615 18.7462 62.1987 18.7712Z" fill="white"/>
</svg>
