<svg width="28" height="28" viewBox="0 0 28 28" fill="none" xmlns="http://www.w3.org/2000/svg">
<path d="M8 0.5C3.8645 0.5 0.5 3.8645 0.5 8V20C0.5 24.1355 3.8645 27.5 8 27.5H20C24.1355 27.5 27.5 24.1355 27.5 20V8C27.5 3.8645 24.1355 0.5 20 0.5H8ZM8 3.5H20C22.481 3.5 24.5 5.519 24.5 8V20C24.5 22.481 22.481 24.5 20 24.5H8C5.519 24.5 3.5 22.481 3.5 20V8C3.5 5.519 5.519 3.5 8 3.5ZM21.5 5C21.1022 5 20.7206 5.15804 20.4393 5.43934C20.158 5.72064 20 6.10218 20 6.5C20 6.89782 20.158 7.27936 20.4393 7.56066C20.7206 7.84196 21.1022 8 21.5 8C21.8978 8 22.2794 7.84196 22.5607 7.56066C22.842 7.27936 23 6.89782 23 6.5C23 6.10218 22.842 5.72064 22.5607 5.43934C22.2794 5.15804 21.8978 5 21.5 5ZM14 6.5C9.8645 6.5 6.5 9.8645 6.5 14C6.5 18.1355 9.8645 21.5 14 21.5C18.1355 21.5 21.5 18.1355 21.5 14C21.5 9.8645 18.1355 6.5 14 6.5ZM14 9.5C16.481 9.5 18.5 11.519 18.5 14C18.5 16.481 16.481 18.5 14 18.5C11.519 18.5 9.5 16.481 9.5 14C9.5 11.519 11.519 9.5 14 9.5Z" fill="white"/>
</svg>
